<svg xmlns="http://www.w3.org/2000/svg" width="33.039" height="33.039" viewBox="0 0 33.039 33.039">
  <defs>
    <style>
      .cls-1 {
        fill: #141e8c;
      }

      .cls-2 {
        fill: #fff;
      }
    </style>
  </defs>
  <g id="zeiss-logo-rgb" transform="translate(-70.9 -70.9)">
    <path id="路径_97" data-name="路径 97" class="cls-1" d="M103.939,103.939a40.272,40.272,0,0,0-33.039,0V70.9h33.039Z"/>
    <g id="组_53" data-name="组 53" transform="translate(72.153 80.133)">
      <path id="路径_98" data-name="路径 98" class="cls-2" d="M78.985,111.269a1.672,1.672,0,0,0-1.679,1.562H76.56V110.5h5.782a5.87,5.87,0,0,1-1.655,3.707s-1.632,1.889-1.679,2.728h.933c1.352,0,1.492-1.562,1.492-1.562H82.2V117.7H76.28s-.21-1.772,1.842-3.917a8.182,8.182,0,0,0,1.562-2.518Z" transform="translate(-76.274 -110.5)"/>
      <path id="路径_99" data-name="路径 99" class="cls-2" d="M138.424,117.7v-.769h-.187a.577.577,0,0,1-.583-.583v-4.5a.577.577,0,0,1,.583-.583h.187V110.5H134.6v.769h.187a.577.577,0,0,1,.583.583v4.5a.577.577,0,0,1-.583.583H134.6v.769Z" transform="translate(-121.001 -110.5)"/>
      <path id="路径_100" data-name="路径 100" class="cls-2" d="M111.109,117.781V115.45h-.769s-.14,1.586-1.492,1.586h-.769v-2.448h.28a.577.577,0,0,1,.583.583v.28h.769v-2.518h-.769v.3a.577.577,0,0,1-.583.583h-.28v-2.448h.769c1.352,0,1.492,1.562,1.492,1.562h.769V110.6H105v.769h.187a.577.577,0,0,1,.583.583v4.5a.577.577,0,0,1-.583.583H105v.769Z" transform="translate(-98.302 -110.577)"/>
      <path id="路径_101" data-name="路径 101" class="cls-2" d="M157.57,111.269a1.672,1.672,0,0,1,1.679,1.562h.746V110.5h-5.526s-.863,1.142,1.4,3.707c0,0,1.632,1.889,1.655,2.728h-.933c-1.352,0-1.492-1.562-1.492-1.562h-.769V117.7H159.9s1-1.1-1.492-3.917a6.868,6.868,0,0,1-1.562-2.518Z" transform="translate(-136.113 -110.5)"/>
      <path id="路径_102" data-name="路径 102" class="cls-2" d="M185.245,111.269a1.7,1.7,0,0,1,1.679,1.562h.746V110.5h-5.526s-.886,1.142,1.4,3.707c0,0,1.632,1.889,1.655,2.728h-.933c-1.352,0-1.492-1.562-1.492-1.562H182V117.7h5.573s1-1.1-1.492-3.917a6.868,6.868,0,0,1-1.562-2.518Z" transform="translate(-157.33 -110.5)"/>
    </g>
  </g>
</svg>
